<svg version="1.2" xmlns="http://www.w3.org/2000/svg" viewBox="0 0 330 40" width="330" height="40">
	<title>New Project</title>
	<style>
		.s0 { fill: #000000 } 
	</style>
	<path id="ASPOSE" class="s0" aria-label="ASPOSE"  d="m108.2 30h-3.7l-2-5.7h-7.9l-2 5.7h-3.6l7.7-20.8h3.8zm-12.6-8.7h6.1l-2-5.6q-0.1-0.4-0.3-1.1-0.3-0.6-0.5-1.3-0.2-0.7-0.3-1.2-0.2 0.6-0.4 1.3-0.2 0.7-0.4 1.3-0.2 0.6-0.3 1zm27.3 3q0 1.9-0.9 3.2-0.9 1.3-2.5 2-1.7 0.7-4 0.7-1.2 0-2.2-0.1-1-0.1-2-0.4-0.9-0.2-1.6-0.6v-3.2q1.2 0.6 2.8 1 1.6 0.5 3.2 0.5 1.3 0 2.2-0.4 0.8-0.3 1.3-1 0.4-0.6 0.4-1.5 0-0.9-0.5-1.5-0.5-0.7-1.5-1.2-1-0.5-2.5-1.1-1-0.5-2-1-0.9-0.5-1.6-1.2-0.7-0.7-1.2-1.7-0.4-1-0.4-2.3 0-1.7 0.9-3 0.8-1.2 2.4-1.9 1.5-0.7 3.5-0.7 1.7 0 3.1 0.4 1.5 0.3 2.8 1l-1 2.7q-1.3-0.5-2.5-0.9-1.2-0.3-2.5-0.3-1 0-1.8 0.4-0.7 0.3-1.1 0.9-0.4 0.6-0.4 1.4 0 0.9 0.4 1.5 0.5 0.6 1.4 1.1 1 0.5 2.5 1.2 1.7 0.7 2.9 1.4 1.2 0.8 1.8 1.9 0.6 1.1 0.6 2.7zm4-15.1h6q4.1 0 5.9 1.7 1.8 1.6 1.8 4.6 0 1.3-0.4 2.6-0.4 1.2-1.3 2.1-1 0.9-2.6 1.5-1.5 0.5-3.8 0.5h-2.2v7.7h-3.4zm5.8 2.9h-2.4v7.3h1.9q1.6 0 2.7-0.4 1.1-0.4 1.7-1.2 0.6-0.8 0.6-2.2 0-1.8-1.1-2.7-1.1-0.8-3.4-0.8zm30.4 7.5q0 2.4-0.6 4.3-0.6 2-1.8 3.4-1.2 1.4-3 2.2-1.8 0.7-4.2 0.7-2.5 0-4.3-0.7-1.9-0.8-3.1-2.2-1.1-1.4-1.7-3.4-0.6-2-0.6-4.4 0-3.2 1-5.5 1.1-2.4 3.2-3.7 2.2-1.4 5.5-1.4 3.2 0 5.4 1.3 2.1 1.4 3.2 3.8 1 2.3 1 5.6zm-15.8 0q0 2.4 0.7 4.1 0.6 1.8 2 2.7 1.3 0.9 3.5 0.9 2.1 0 3.4-0.9 1.4-0.9 2-2.7 0.7-1.7 0.7-4.1 0-3.7-1.5-5.7-1.4-2.1-4.6-2.1-2.1 0-3.5 0.9-1.4 1-2 2.7-0.7 1.8-0.7 4.2zm32.2 4.7q0 1.9-0.9 3.2-0.9 1.3-2.5 2-1.7 0.7-4 0.7-1.2 0-2.2-0.1-1-0.1-2-0.4-0.9-0.2-1.6-0.6v-3.2q1.2 0.6 2.8 1 1.6 0.5 3.2 0.5 1.3 0 2.2-0.4 0.8-0.3 1.3-1 0.4-0.6 0.4-1.5 0-0.9-0.5-1.5-0.5-0.7-1.5-1.2-1-0.5-2.5-1.1-1-0.4-2-1-0.9-0.5-1.6-1.2-0.7-0.7-1.2-1.7-0.4-1-0.4-2.3 0-1.7 0.9-3 0.8-1.2 2.3-1.9 1.6-0.6 3.6-0.6 1.7 0 3.1 0.3 1.4 0.3 2.8 1l-1 2.7q-1.3-0.5-2.5-0.8-1.2-0.4-2.5-0.4-1 0-1.8 0.4-0.7 0.3-1.1 0.9-0.4 0.6-0.4 1.4 0 0.9 0.4 1.5 0.5 0.6 1.4 1.1 1 0.5 2.5 1.2 1.7 0.7 2.9 1.4 1.2 0.8 1.8 1.9 0.6 1.1 0.6 2.7zm15.8 2.8v2.9h-11.8v-20.8h11.8v2.9h-8.4v5.6h7.8v2.9h-7.8v6.5z"/>
</svg>