<?xml version="1.0" encoding="utf-8"?>
<!-- Generator: Adobe Illustrator 16.0.0, SVG Export Plug-In . SVG Version: 6.00 Build 0)  -->
<!DOCTYPE svg PUBLIC "-//W3C//DTD SVG 1.1//EN" "http://www.w3.org/Graphics/SVG/1.1/DTD/svg11.dtd">
<svg version="1.1" id="Logo_Graphics" xmlns="http://www.w3.org/2000/svg" xmlns:xlink="http://www.w3.org/1999/xlink" x="0px"
	 y="0px" width="330px" height="30px" viewBox="0 0 595.28 155.991" enable-background="new 0 0 595.28 155.991"
	 xml:space="preserve">
<g id="AsposeVector">
	
		<radialGradient id="SVGID_1_" cx="-160.2671" cy="373.8306" r="42.9876" gradientTransform="matrix(0 1 -1 0 480.5972 242.5264)" gradientUnits="userSpaceOnUse">
		<stop  offset="0.1429" style="stop-color:#D4EEFB"/>
		<stop  offset="0.8424" style="stop-color:#3C8DC5"/>
		<stop  offset="1" style="stop-color:#3780B3"/>
	</radialGradient>
	<path fill="url(#SVGID_1_)" d="M148.326,86.39c0.249-2.539,2.371-33.463-24.202-47.506c-12.42-6.57-29.188-6.486-38.393,2.845
		c-16.267,16.463-2.476,33.721,2.685,35.438c0.196,0.056,0.124-0.078,0.073-0.286c-8.171-32.612,48.642-38.451,58.679,9.335
		C147.526,87.915,148.175,87.873,148.326,86.39z"/>
	<radialGradient id="SVGID_2_" cx="108.2734" cy="90.7437" r="31.2085" gradientUnits="userSpaceOnUse">
		<stop  offset="0.1429" style="stop-color:#FDE487"/>
		<stop  offset="0.5636" style="stop-color:#F69A30"/>
		<stop  offset="0.5863" style="stop-color:#F6972F"/>
		<stop  offset="0.8526" style="stop-color:#F3772A"/>
		<stop  offset="1" style="stop-color:#F26B28"/>
	</radialGradient>
	<path fill="url(#SVGID_2_)" d="M82.779,125.824c2.534,0.246,33.457,2.359,47.506-24.21c6.57-12.421,6.48-29.191-2.842-38.394
		c-16.471-16.269-33.729-2.483-35.444,2.691c-0.04,0.105,0.123,0.105,0.283,0.072c32.615-8.174,38.451,48.638-9.329,58.679
		C81.255,125.016,81.294,125.661,82.779,125.824z"/>
	
		<radialGradient id="SVGID_3_" cx="416.1982" cy="327.4409" r="42.9904" gradientTransform="matrix(0 -1 1 0 -242.5269 480.5972)" gradientUnits="userSpaceOnUse">
		<stop  offset="0" style="stop-color:#FBB017"/>
		<stop  offset="0.2319" style="stop-color:#FAB319"/>
		<stop  offset="0.4027" style="stop-color:#F8BC20"/>
		<stop  offset="0.5533" style="stop-color:#F4CC2C"/>
		<stop  offset="0.6727" style="stop-color:#EFDF3A"/>
		<stop  offset="0.7503" style="stop-color:#E6D534"/>
		<stop  offset="0.8813" style="stop-color:#CCBB23"/>
		<stop  offset="1" style="stop-color:#B09D11"/>
	</radialGradient>
	<path fill="url(#SVGID_3_)" d="M43.353,60.266c-0.253,2.539-2.369,33.462,24.204,47.511c12.42,6.57,29.188,6.481,38.393-2.848
		c16.269-16.465,2.481-33.72-2.69-35.437c-0.214-0.078-0.146,0-0.073,0.281c8.174,32.616-48.638,38.445-58.679-9.334
		C44.147,58.744,43.504,58.786,43.353,60.266z"/>
	
		<radialGradient id="SVGID_4_" cx="104.7715" cy="62.4023" r="42.991" gradientTransform="matrix(1 0 0 1 0 -9.765625e-004)" gradientUnits="userSpaceOnUse">
		<stop  offset="0" style="stop-color:#A0C33A"/>
		<stop  offset="0.4545" style="stop-color:#9FCB3A"/>
		<stop  offset="1" style="stop-color:#3C933A"/>
	</radialGradient>
	<path fill="url(#SVGID_4_)" d="M108.898,20.838c-2.534-0.249-33.46-2.36-47.506,24.21c-6.567,12.42-6.48,29.188,2.845,38.39
		c16.468,16.266,33.724,2.481,35.438-2.69c0.037-0.148,0.037-0.148-0.282-0.07c-32.611,8.174-38.443-48.644,9.334-58.681
		C110.432,21.646,110.381,20.996,108.898,20.838z"/>
	<g opacity="0.6">
		
			<radialGradient id="SVGID_5_" cx="101.0718" cy="22.4321" r="49.671" gradientTransform="matrix(1.0987 0 0 1.6216 -14.9824 77.9839)" gradientUnits="userSpaceOnUse">
			<stop  offset="0" style="stop-color:#F8E687"/>
			<stop  offset="1" style="stop-color:#FFFFFF"/>
		</radialGradient>
		<path opacity="0.38" fill="url(#SVGID_5_)" d="M95.839,42.366c-4.544,0-8.869,0.866-12.804,2.438
			c-11.894,15.479,0.541,30.749,5.381,32.363c0.196,0.056,0.124-0.078,0.073-0.286c-4.992-19.935,14.299-29.863,32.342-23.651
			C114.804,46.582,105.846,42.366,95.839,42.366z"/>
		
			<radialGradient id="SVGID_6_" cx="101.0728" cy="22.436" r="49.6722" gradientTransform="matrix(1.0987 0 0 1.6216 -14.9824 77.9839)" gradientUnits="userSpaceOnUse">
			<stop  offset="0" style="stop-color:#F8E687"/>
			<stop  offset="1" style="stop-color:#FFFFFF"/>
		</radialGradient>
		<path opacity="0.38" fill="url(#SVGID_6_)" d="M91.999,65.912c-0.04,0.105,0.123,0.105,0.283,0.072
			c19.702-4.939,29.631,13.83,23.876,31.686c7.636-5.674,12.538-14.464,12.538-24.333c0-3.85-0.743-7.529-2.103-10.926
			C110.384,47.422,93.687,60.827,91.999,65.912z"/>
		
			<radialGradient id="SVGID_7_" cx="101.0737" cy="22.436" r="49.6742" gradientTransform="matrix(1.0987 0 0 1.6216 -14.9824 77.9839)" gradientUnits="userSpaceOnUse">
			<stop  offset="0" style="stop-color:#F8E687"/>
			<stop  offset="1" style="stop-color:#FFFFFF"/>
		</radialGradient>
		<path opacity="0.38" fill="url(#SVGID_7_)" d="M103.259,69.493c-0.214-0.078-0.146,0-0.073,0.281
			c4.995,19.94-14.298,29.866-32.342,23.654c6.026,6.646,14.988,10.867,24.995,10.867c4.541,0,8.866-0.868,12.802-2.436
			C120.539,86.384,108.108,71.102,103.259,69.493z"/>
		
			<radialGradient id="SVGID_8_" cx="101.0728" cy="22.4346" r="49.6715" gradientTransform="matrix(1.0987 0 0 1.6216 -14.9824 77.9839)" gradientUnits="userSpaceOnUse">
			<stop  offset="0" style="stop-color:#F8E687"/>
			<stop  offset="1" style="stop-color:#FFFFFF"/>
		</radialGradient>
		<path opacity="0.38" fill="url(#SVGID_8_)" d="M99.676,80.748c0.037-0.148,0.037-0.148-0.282-0.07
			c-19.697,4.937-29.623-13.832-23.871-31.686c-7.641,5.674-12.544,14.467-12.544,24.345c0,3.837,0.749,7.515,2.103,10.906
			C81.291,99.233,97.991,85.832,99.676,80.748z"/>
	</g>
	<g>
		<path d="M184.785,97.008l-6.271,14.788h-11.512l28.921-65.518h11.325l28.641,65.518h-11.793l-6.271-14.788H184.785z
			 M201.258,58.071L188.903,87.18h24.709L201.258,58.071z"/>
		<path d="M288.492,52.549l-4.586,9.734c-7.113-4.305-14.227-6.083-19.188-6.083c-6.458,0-10.67,2.434-10.67,6.833
			c0,14.32,35.38,6.646,35.286,30.232c0,11.699-10.296,18.906-24.709,18.906c-10.296,0-20.03-4.212-26.769-10.389l4.773-9.547
			c6.739,6.177,15.163,9.547,22.183,9.547c7.675,0,12.261-2.901,12.261-7.956c0-14.601-35.38-6.458-35.38-29.764
			c0-11.231,9.641-18.251,23.867-18.251C274.078,45.81,282.408,48.524,288.492,52.549z"/>
		<path d="M328.366,46.278c16.473,0,25.926,8.143,25.926,22.37c0,14.788-9.453,23.399-25.926,23.399h-15.069v19.749h-11.045V46.278
			H328.366z M313.297,82.126h14.601c10.108,0,15.818-4.306,15.818-13.197c0-8.611-5.71-12.729-15.818-12.729h-14.601V82.126z"/>
		<path d="M429.265,79.037c0,18.719-15.163,33.227-34.725,33.227c-19.563,0-34.725-14.508-34.725-33.227
			c0-18.813,15.162-33.04,34.725-33.04C414.102,45.998,429.265,60.318,429.265,79.037z M371.047,79.037
			c0,13.01,10.764,23.306,23.587,23.306c12.822,0,23.306-10.296,23.306-23.306c0-13.01-10.483-23.118-23.306-23.118
			C381.717,55.919,371.047,66.027,371.047,79.037z"/>
		<path d="M485.518,52.549l-4.586,9.734c-7.113-4.305-14.227-6.083-19.188-6.083c-6.458,0-10.67,2.434-10.67,6.833
			c0,14.32,35.38,6.646,35.286,30.232c0,11.699-10.296,18.906-24.71,18.906c-10.296,0-20.029-4.212-26.769-10.389l4.773-9.547
			c6.739,6.177,15.163,9.547,22.183,9.547c7.675,0,12.261-2.901,12.261-7.956c0-14.601-35.379-6.458-35.379-29.764
			c0-11.231,9.64-18.251,23.867-18.251C471.104,45.81,479.435,48.524,485.518,52.549z"/>
		<path d="M510.322,56.2v17.69h32.011v9.921h-32.011v18.064H547.2v9.921h-47.922V46.278h46.798V56.2H510.322z"/>
	</g>
</g>
</svg>
